<mxfile host="drawio-plugin" modified="2023-05-29T14:55:30.434Z" agent="5.0 (Windows NT 6.2; Win64; x64) AppleWebKit/537.36 (KHTML, like Gecko) Chrome/104.0.5112.102 Safari/537.36" etag="Xllz0GNR8RN0GS5JyBfq" version="20.5.3" type="embed"><diagram id="fLNG6U10Jc3AvwP7Pfjn" name="Page-1"><mxGraphModel dx="-224" dy="-1077" grid="0" gridSize="10" guides="1" tooltips="1" connect="1" arrows="1" fold="1" page="0" pageScale="1" pageWidth="827" pageHeight="1169" background="none" math="0" shadow="0"><root><mxCell id="0"/><mxCell id="1" parent="0"/><mxCell id="5lTu8dcaC-K2s0UTSZmU-24" style="edgeStyle=orthogonalEdgeStyle;html=1;exitX=0.674;exitY=1.013;exitDx=0;exitDy=0;entryX=1;entryY=0.5;entryDx=0;entryDy=0;entryPerimeter=0;strokeColor=#6F0000;endArrow=none;endFill=0;exitPerimeter=0;fillColor=#a20025;" parent="1" source="5lTu8dcaC-K2s0UTSZmU-1" target="5lTu8dcaC-K2s0UTSZmU-23" edge="1"><mxGeometry relative="1" as="geometry"/></mxCell><mxCell id="Dqz88kb-FHzcmxErnvod-14" style="edgeStyle=orthogonalEdgeStyle;html=1;dashed=1;endArrow=open;endFill=0;entryX=1;entryY=0.5;entryDx=0;entryDy=0;exitX=1;exitY=0.5;exitDx=0;exitDy=0;" parent="1" source="5lTu8dcaC-K2s0UTSZmU-1" target="8" edge="1"><mxGeometry relative="1" as="geometry"><mxPoint x="2411" y="2480" as="targetPoint"/><Array as="points"><mxPoint x="2345" y="1824"/><mxPoint x="2345" y="2673"/></Array></mxGeometry></mxCell><mxCell id="5lTu8dcaC-K2s0UTSZmU-1" value="Core" style="html=1;dropTarget=0;" parent="1" vertex="1"><mxGeometry x="1552.5" y="1779" width="399" height="90" as="geometry"/></mxCell><mxCell id="5lTu8dcaC-K2s0UTSZmU-2" value="" style="shape=module;jettyWidth=8;jettyHeight=4;" parent="5lTu8dcaC-K2s0UTSZmU-1" vertex="1"><mxGeometry x="1" width="20" height="20" relative="1" as="geometry"><mxPoint x="-27" y="7" as="offset"/></mxGeometry></mxCell><mxCell id="57" style="edgeStyle=orthogonalEdgeStyle;jumpStyle=arc;jumpSize=10;html=1;exitX=0.33;exitY=0.004;exitDx=0;exitDy=0;endArrow=none;endFill=0;entryX=0;entryY=0.5;entryDx=0;entryDy=0;entryPerimeter=0;exitPerimeter=0;fillColor=#008a00;strokeColor=#005700;" parent="1" source="5lTu8dcaC-K2s0UTSZmU-3" target="Dqz88kb-FHzcmxErnvod-2" edge="1"><mxGeometry relative="1" as="geometry"><mxPoint x="1754.666666666667" y="1957.5" as="targetPoint"/><Array as="points"><mxPoint x="1722" y="2148"/></Array></mxGeometry></mxCell><mxCell id="63" style="edgeStyle=orthogonalEdgeStyle;jumpStyle=none;jumpSize=10;html=1;endArrow=none;endFill=0;entryX=0;entryY=0.5;entryDx=0;entryDy=0;entryPerimeter=0;fillColor=#a20025;strokeColor=#6F0000;" parent="1" source="5lTu8dcaC-K2s0UTSZmU-3" target="5lTu8dcaC-K2s0UTSZmU-23" edge="1"><mxGeometry relative="1" as="geometry"><mxPoint x="1876.095238095238" y="1907.6666666666665" as="targetPoint"/><Array as="points"><mxPoint x="1752" y="2048"/><mxPoint x="1822" y="2048"/></Array></mxGeometry></mxCell><mxCell id="187" style="edgeStyle=orthogonalEdgeStyle;rounded=1;orthogonalLoop=1;jettySize=auto;html=1;exitX=0.5;exitY=1;exitDx=0;exitDy=0;dashed=1;startArrow=none;startFill=0;endArrow=classic;endFill=1;" edge="1" parent="1" source="5lTu8dcaC-K2s0UTSZmU-3" target="8"><mxGeometry relative="1" as="geometry"><Array as="points"><mxPoint x="1754" y="2238"/></Array></mxGeometry></mxCell><mxCell id="5lTu8dcaC-K2s0UTSZmU-3" value="&amp;lt;&amp;lt;component&amp;gt;&amp;gt;&lt;br&gt;Player" style="html=1;dropTarget=0;" parent="1" vertex="1"><mxGeometry x="1662" y="2148" width="180" height="90" as="geometry"/></mxCell><mxCell id="5lTu8dcaC-K2s0UTSZmU-4" value="" style="shape=module;jettyWidth=8;jettyHeight=4;" parent="5lTu8dcaC-K2s0UTSZmU-3" vertex="1"><mxGeometry x="1" width="20" height="20" relative="1" as="geometry"><mxPoint x="-27" y="7" as="offset"/></mxGeometry></mxCell><mxCell id="5lTu8dcaC-K2s0UTSZmU-7" style="edgeStyle=none;html=1;exitX=1;exitY=0.5;exitDx=0;exitDy=0;exitPerimeter=0;endArrow=none;endFill=0;entryX=0.425;entryY=1.004;entryDx=0;entryDy=0;entryPerimeter=0;fillColor=#008a00;strokeColor=#005700;" parent="1" source="Dqz88kb-FHzcmxErnvod-2" target="5lTu8dcaC-K2s0UTSZmU-1" edge="1"><mxGeometry relative="1" as="geometry"><mxPoint x="1753" y="1803" as="targetPoint"/></mxGeometry></mxCell><mxCell id="Dqz88kb-FHzcmxErnvod-2" value="" style="shape=providedRequiredInterface;html=1;verticalLabelPosition=bottom;rotation=-90;fillColor=#008a00;fontColor=#ffffff;strokeColor=#005700;" parent="1" vertex="1"><mxGeometry x="1712" y="1906" width="20" height="20" as="geometry"/></mxCell><mxCell id="56" style="edgeStyle=orthogonalEdgeStyle;jumpStyle=arc;jumpSize=10;html=1;entryX=0;entryY=0.5;entryDx=0;entryDy=0;entryPerimeter=0;endArrow=none;endFill=0;exitX=0.25;exitY=0;exitDx=0;exitDy=0;fillColor=#008a00;strokeColor=#005700;" parent="1" source="5lTu8dcaC-K2s0UTSZmU-9" target="Dqz88kb-FHzcmxErnvod-2" edge="1"><mxGeometry relative="1" as="geometry"><Array as="points"><mxPoint x="1471" y="2025"/><mxPoint x="1722" y="2025"/></Array></mxGeometry></mxCell><mxCell id="62" style="edgeStyle=orthogonalEdgeStyle;jumpStyle=none;jumpSize=10;html=1;exitX=0.5;exitY=0;exitDx=0;exitDy=0;entryX=0;entryY=0.5;entryDx=0;entryDy=0;entryPerimeter=0;endArrow=none;endFill=0;fillColor=#a20025;strokeColor=#6F0000;" parent="1" source="5lTu8dcaC-K2s0UTSZmU-9" target="5lTu8dcaC-K2s0UTSZmU-23" edge="1"><mxGeometry relative="1" as="geometry"><Array as="points"><mxPoint x="1516" y="2048"/><mxPoint x="1822" y="2048"/></Array></mxGeometry></mxCell><mxCell id="179" style="edgeStyle=orthogonalEdgeStyle;rounded=1;orthogonalLoop=1;jettySize=auto;html=1;dashed=1;endArrow=none;endFill=0;" edge="1" parent="1" source="5lTu8dcaC-K2s0UTSZmU-9" target="8"><mxGeometry relative="1" as="geometry"><Array as="points"><mxPoint x="1504" y="2673"/></Array></mxGeometry></mxCell><mxCell id="5lTu8dcaC-K2s0UTSZmU-9" value="&amp;lt;&amp;lt;component&amp;gt;&amp;gt;&lt;br&gt;Enemy" style="html=1;dropTarget=0;" parent="1" vertex="1"><mxGeometry x="1423" y="2155" width="180" height="90" as="geometry"/></mxCell><mxCell id="5lTu8dcaC-K2s0UTSZmU-10" value="" style="shape=module;jettyWidth=8;jettyHeight=4;" parent="5lTu8dcaC-K2s0UTSZmU-9" vertex="1"><mxGeometry x="1" width="20" height="20" relative="1" as="geometry"><mxPoint x="-27" y="7" as="offset"/></mxGeometry></mxCell><mxCell id="64" style="edgeStyle=orthogonalEdgeStyle;jumpStyle=none;jumpSize=10;html=1;entryX=0;entryY=0.5;entryDx=0;entryDy=0;entryPerimeter=0;endArrow=none;endFill=0;fillColor=#a20025;strokeColor=#6F0000;" parent="1" source="5lTu8dcaC-K2s0UTSZmU-11" target="5lTu8dcaC-K2s0UTSZmU-23" edge="1"><mxGeometry relative="1" as="geometry"><Array as="points"><mxPoint x="1988" y="2048"/><mxPoint x="1822" y="2048"/></Array></mxGeometry></mxCell><mxCell id="189" style="edgeStyle=orthogonalEdgeStyle;rounded=1;orthogonalLoop=1;jettySize=auto;html=1;exitX=0.5;exitY=1;exitDx=0;exitDy=0;entryX=1;entryY=0.5;entryDx=0;entryDy=0;dashed=1;startArrow=none;startFill=0;endArrow=none;endFill=0;" edge="1" parent="1" source="5lTu8dcaC-K2s0UTSZmU-11" target="8"><mxGeometry relative="1" as="geometry"/></mxCell><mxCell id="5lTu8dcaC-K2s0UTSZmU-11" value="&amp;lt;&amp;lt;component&amp;gt;&amp;gt;&lt;br&gt;Asteroid" style="html=1;dropTarget=0;" parent="1" vertex="1"><mxGeometry x="1898" y="2148" width="180" height="90" as="geometry"/></mxCell><mxCell id="5lTu8dcaC-K2s0UTSZmU-12" value="" style="shape=module;jettyWidth=8;jettyHeight=4;" parent="5lTu8dcaC-K2s0UTSZmU-11" vertex="1"><mxGeometry x="1" width="20" height="20" relative="1" as="geometry"><mxPoint x="-27" y="7" as="offset"/></mxGeometry></mxCell><mxCell id="59" style="edgeStyle=orthogonalEdgeStyle;jumpStyle=none;jumpSize=10;html=1;exitX=0.25;exitY=0;exitDx=0;exitDy=0;entryX=0;entryY=0.5;entryDx=0;entryDy=0;entryPerimeter=0;endArrow=none;endFill=0;fillColor=#008a00;strokeColor=#005700;rounded=1;" parent="1" source="5lTu8dcaC-K2s0UTSZmU-13" target="Dqz88kb-FHzcmxErnvod-2" edge="1"><mxGeometry relative="1" as="geometry"><Array as="points"><mxPoint x="2179" y="2025"/><mxPoint x="1722" y="2025"/></Array></mxGeometry></mxCell><mxCell id="65" style="edgeStyle=orthogonalEdgeStyle;jumpStyle=none;jumpSize=10;html=1;entryX=0;entryY=0.5;entryDx=0;entryDy=0;entryPerimeter=0;endArrow=none;endFill=0;fillColor=#a20025;strokeColor=#6F0000;" parent="1" source="5lTu8dcaC-K2s0UTSZmU-13" target="5lTu8dcaC-K2s0UTSZmU-23" edge="1"><mxGeometry relative="1" as="geometry"><Array as="points"><mxPoint x="2224" y="2048"/><mxPoint x="1822" y="2048"/></Array></mxGeometry></mxCell><mxCell id="188" style="edgeStyle=orthogonalEdgeStyle;rounded=1;orthogonalLoop=1;jettySize=auto;html=1;exitX=0.5;exitY=1;exitDx=0;exitDy=0;entryX=1;entryY=0.5;entryDx=0;entryDy=0;dashed=1;startArrow=none;startFill=0;endArrow=none;endFill=0;" edge="1" parent="1" source="5lTu8dcaC-K2s0UTSZmU-13" target="8"><mxGeometry relative="1" as="geometry"><Array as="points"><mxPoint x="2130" y="2238"/><mxPoint x="2130" y="2673"/></Array></mxGeometry></mxCell><mxCell id="203" style="edgeStyle=orthogonalEdgeStyle;rounded=1;jumpStyle=none;orthogonalLoop=1;jettySize=auto;html=1;exitX=0.5;exitY=1;exitDx=0;exitDy=0;entryX=1;entryY=0.5;entryDx=0;entryDy=0;entryPerimeter=0;startArrow=none;startFill=0;endArrow=none;endFill=0;fillColor=#fa6800;strokeColor=#C73500;" edge="1" parent="1" source="5lTu8dcaC-K2s0UTSZmU-13" target="198"><mxGeometry relative="1" as="geometry"><Array as="points"><mxPoint x="2206" y="2238"/></Array></mxGeometry></mxCell><mxCell id="5lTu8dcaC-K2s0UTSZmU-13" value="&amp;lt;&amp;lt;component&amp;gt;&amp;gt;&lt;br&gt;Bullet" style="html=1;dropTarget=0;" parent="1" vertex="1"><mxGeometry x="2093" y="2148" width="180" height="90" as="geometry"/></mxCell><mxCell id="5lTu8dcaC-K2s0UTSZmU-14" value="" style="shape=module;jettyWidth=8;jettyHeight=4;" parent="5lTu8dcaC-K2s0UTSZmU-13" vertex="1"><mxGeometry x="1" width="20" height="20" relative="1" as="geometry"><mxPoint x="-27" y="7" as="offset"/></mxGeometry></mxCell><mxCell id="Dqz88kb-FHzcmxErnvod-5" value="IEntityProcessing service" style="text;html=1;strokeColor=none;fillColor=none;align=center;verticalAlign=middle;whiteSpace=wrap;rounded=0;" parent="1" vertex="1"><mxGeometry x="1638" y="1881" width="74" height="39" as="geometry"/></mxCell><mxCell id="96" style="edgeStyle=orthogonalEdgeStyle;jumpStyle=arc;jumpSize=10;html=1;entryX=0;entryY=0.5;entryDx=0;entryDy=0;endArrow=classic;endFill=1;dashed=1;startArrow=none;startFill=0;" parent="1" source="5" target="8" edge="1"><mxGeometry relative="1" as="geometry"><Array as="points"><mxPoint x="1282" y="2673"/></Array></mxGeometry></mxCell><mxCell id="97" style="edgeStyle=orthogonalEdgeStyle;jumpStyle=arc;jumpSize=10;html=1;entryX=0;entryY=0.5;entryDx=0;entryDy=0;entryPerimeter=0;endArrow=none;endFill=0;fillColor=#6a00ff;strokeColor=#3700CC;" parent="1" source="5" target="Dqz88kb-FHzcmxErnvod-7" edge="1"><mxGeometry relative="1" as="geometry"><Array as="points"><mxPoint x="1279" y="1926"/></Array></mxGeometry></mxCell><mxCell id="5" value="&amp;lt;&amp;lt;component&amp;gt;&amp;gt;&lt;br&gt;Collision" style="html=1;dropTarget=0;" parent="1" vertex="1"><mxGeometry x="1189" y="2153" width="180" height="90" as="geometry"/></mxCell><mxCell id="6" value="" style="shape=module;jettyWidth=8;jettyHeight=4;" parent="5" vertex="1"><mxGeometry x="1" width="20" height="20" relative="1" as="geometry"><mxPoint x="-27" y="7" as="offset"/></mxGeometry></mxCell><mxCell id="s5my0ecmpizXD4HZRtwD-12" style="edgeStyle=none;html=1;entryX=0.174;entryY=1.004;entryDx=0;entryDy=0;endArrow=none;endFill=0;entryPerimeter=0;fillColor=#6a00ff;strokeColor=#3700CC;" parent="1" source="Dqz88kb-FHzcmxErnvod-7" target="5lTu8dcaC-K2s0UTSZmU-1" edge="1"><mxGeometry relative="1" as="geometry"/></mxCell><mxCell id="Dqz88kb-FHzcmxErnvod-7" value="" style="shape=providedRequiredInterface;html=1;verticalLabelPosition=bottom;rotation=-90;fillColor=#6a00ff;fontColor=#ffffff;strokeColor=#3700CC;" parent="1" vertex="1"><mxGeometry x="1612" y="1906" width="20" height="20" as="geometry"/></mxCell><mxCell id="Dqz88kb-FHzcmxErnvod-8" value="IPost&lt;br&gt;EntityProcessing service" style="text;html=1;strokeColor=none;fillColor=none;align=center;verticalAlign=middle;whiteSpace=wrap;rounded=0;" parent="1" vertex="1"><mxGeometry x="1513" y="1880" width="81" height="46" as="geometry"/></mxCell><mxCell id="5lTu8dcaC-K2s0UTSZmU-23" value="" style="shape=providedRequiredInterface;html=1;verticalLabelPosition=bottom;rotation=-90;fillColor=#a20025;fontColor=#ffffff;strokeColor=#6F0000;" parent="1" vertex="1"><mxGeometry x="1812" y="1906" width="20" height="20" as="geometry"/></mxCell><mxCell id="5lTu8dcaC-K2s0UTSZmU-25" value="IGamePlugin service" style="text;html=1;strokeColor=none;fillColor=none;align=center;verticalAlign=middle;whiteSpace=wrap;rounded=0;" parent="1" vertex="1"><mxGeometry x="1746" y="1880" width="53" height="39" as="geometry"/></mxCell><mxCell id="8" value="&amp;lt;&amp;lt;component&amp;gt;&amp;gt;&lt;br&gt;&amp;lt;&amp;lt;library&amp;gt;&amp;gt;&lt;br&gt;Common" style="html=1;dropTarget=0;" parent="1" vertex="1"><mxGeometry x="1664" y="2628" width="180" height="90" as="geometry"/></mxCell><mxCell id="9" value="" style="shape=module;jettyWidth=8;jettyHeight=4;" parent="8" vertex="1"><mxGeometry x="1" width="20" height="20" relative="1" as="geometry"><mxPoint x="-27" y="7" as="offset"/></mxGeometry></mxCell><mxCell id="193" style="edgeStyle=orthogonalEdgeStyle;rounded=1;jumpStyle=none;orthogonalLoop=1;jettySize=auto;html=1;exitX=0.5;exitY=1;exitDx=0;exitDy=0;entryX=1;entryY=0.5;entryDx=0;entryDy=0;dashed=1;startArrow=none;startFill=0;endArrow=none;endFill=0;" edge="1" parent="1" source="191" target="8"><mxGeometry relative="1" as="geometry"/></mxCell><mxCell id="202" style="edgeStyle=orthogonalEdgeStyle;rounded=1;jumpStyle=none;orthogonalLoop=1;jettySize=auto;html=1;exitX=0.5;exitY=0;exitDx=0;exitDy=0;startArrow=none;startFill=0;endArrow=none;endFill=0;fillColor=#fa6800;strokeColor=#C73500;" edge="1" parent="1" source="191" target="198"><mxGeometry relative="1" as="geometry"><Array as="points"><mxPoint x="2206" y="2435"/></Array></mxGeometry></mxCell><mxCell id="191" value="&amp;lt;&amp;lt;component&amp;gt;&amp;gt;&lt;br&gt;CommonBullet" style="html=1;dropTarget=0;" vertex="1" parent="1"><mxGeometry x="2147" y="2435" width="180" height="90" as="geometry"/></mxCell><mxCell id="192" value="" style="shape=module;jettyWidth=8;jettyHeight=4;" vertex="1" parent="191"><mxGeometry x="1" width="20" height="20" relative="1" as="geometry"><mxPoint x="-27" y="7" as="offset"/></mxGeometry></mxCell><mxCell id="198" value="" style="shape=providedRequiredInterface;html=1;verticalLabelPosition=bottom;sketch=0;rotation=-90;fillColor=#fa6800;fontColor=#000000;strokeColor=#C73500;" vertex="1" parent="1"><mxGeometry x="2196" y="2317" width="20" height="20" as="geometry"/></mxCell><mxCell id="204" value="Bullet" style="text;html=1;align=center;verticalAlign=middle;resizable=0;points=[];autosize=1;strokeColor=none;fillColor=none;" vertex="1" parent="1"><mxGeometry x="2216" y="2317" width="48" height="26" as="geometry"/></mxCell></root></mxGraphModel></diagram></mxfile>